<svg xmlns="http://www.w3.org/2000/svg" viewBox="0 0 24 24" class="custom-icon">
  <defs>
    <filter id="neon-glow" x="-50%" y="-50%" width="200%" height="200%">
      <feGaussianBlur stdDeviation="1.5" result="coloredBlur"/>
      <feMerge>
        <feMergeNode in="coloredBlur"/>
        <feMergeNode in="SourceGraphic"/>
      </feMerge>
    </filter>
    <linearGradient id="neon-grad" x1="0%" y1="0%" x2="100%" y2="100%">
      <stop offset="0%" style="stop-color:#00f0ff;stop-opacity:1" />
      <stop offset="100%" style="stop-color:#8000ff;stop-opacity:1" />
    </linearGradient>
  </defs>
  <path d="M21 6H3c-1.1 0-2 .9-2 2v8c0 1.1.9 2 2 2h18c1.1 0 2-.9 2-2V8c0-1.1-.9-2-2-2zm-10 7H9v2H7v-2H5v-2h2V9h2v2h2v2zm6 1c-.83 0-1.5-.67-1.5-1.5S16.17 11 17 11s1.5.67 1.5 1.5S17.83 14 17 14zm-3-3c-.83 0-1.5-.67-1.5-1.5S13.17 8 14 8s1.5.67 1.5 1.5S14.83 11 14 11z" 
        fill="rgba(0,0,0,0.5)" 
        stroke="url(#neon-grad)" 
        stroke-width="1.2" 
        stroke-linejoin="round"
        filter="url(#neon-glow)" />
</svg>
