<svg xmlns="http://www.w3.org/2000/svg" viewBox="0 0 24 24" class="custom-icon">
  <defs>
    <filter id="neon-glow" x="-50%" y="-50%" width="200%" height="200%">
      <feGaussianBlur stdDeviation="1.5" result="coloredBlur"/>
      <feMerge>
        <feMergeNode in="coloredBlur"/>
        <feMergeNode in="SourceGraphic"/>
      </feMerge>
    </filter>
    <linearGradient id="neon-grad" x1="0%" y1="0%" x2="100%" y2="100%">
      <stop offset="0%" style="stop-color:#00f0ff;stop-opacity:1" />
      <stop offset="100%" style="stop-color:#8000ff;stop-opacity:1" />
    </linearGradient>
  </defs>
  <path d="M21 16.5c-1.25.11-2.45-.63-2.94-1.81l-2.05-4.94c-.95-2.28-3.14-3.75-5.61-3.75s-4.66 1.47-5.61 3.75L2.74 14.69c-.49 1.18-1.69 1.92-2.94 1.81V19c0 1.1.9 2 2 2h18c1.1 0 2-.9 2-2v-2.5zM19 12h-2V7.03C17 4.08 14.42 2 11.5 2S6 4.08 6 7.03V12H4V7.03C4 3.19 7.46 0 11.5 0S19 3.19 19 7.03V12z" 
        fill="rgba(0,0,0,0.5)" 
        stroke="url(#neon-grad)" 
        stroke-width="1.5" 
        stroke-linejoin="round"
        filter="url(#neon-glow)" />
</svg>
