<svg xmlns="http://www.w3.org/2000/svg" viewBox="0 0 24 24" class="custom-icon">
  <defs>
    <filter id="neon-glow" x="-50%" y="-50%" width="200%" height="200%">
      <feGaussianBlur stdDeviation="1.5" result="coloredBlur"/>
      <feMerge>
        <feMergeNode in="coloredBlur"/>
        <feMergeNode in="SourceGraphic"/>
      </feMerge>
    </filter>
    <linearGradient id="neon-grad" x1="0%" y1="0%" x2="100%" y2="100%">
      <stop offset="0%" style="stop-color:#00f0ff;stop-opacity:1" />
      <stop offset="100%" style="stop-color:#8000ff;stop-opacity:1" />
    </linearGradient>
  </defs>
  <path d="M20.2 15.6l-2.2-1.3c-.6-.4-1.3-.3-1.8.3l-.8 1c-.1.1-.3.1-.4 0-1.8-1.4-3.1-2.7-4.5-4.5-.1-.1-.1-.3 0-.4l1-.8c.6-.5.7-1.2.3-1.8l-1.3-2.2c-.4-.7-1.3-.9-2-.4l-.9.5C6.3 7 5.7 8.5 6.2 10.1c1.2 3.8 4.6 7.2 8.4 8.4 1.6.5 3.1-.1 4.1-1.4l.5-.9c.5-.7.3-1.6-.4-2m-13.8 2.6c0-1.1.9-2 2-2s2 .9 2 2-.9 2-2 2-2-.9-2-2" 
        fill="rgba(0,0,0,0.5)" 
        stroke="url(#neon-grad)" 
        stroke-width="1.5" 
        stroke-linejoin="round"
        filter="url(#neon-glow)" />
</svg>
