<?xml version="1.0" encoding="UTF-8"?>
<svg id="Logo" xmlns="http://www.w3.org/2000/svg" viewBox="0 0 129.03 113.56">
  <defs>
    <style>
      .cls-1 {
        fill: #233f92;
      }

      .cls-2 {
        fill: #fff;
        stroke: #1d1d1b;
        stroke-miterlimit: 10;
      }

      .cls-3 {
        fill: none;
        stroke: #000;
        stroke-width: 4px;
      }
    </style>
  </defs>
  <g>
    <path class="cls-2" d="M83.81,73.05h43.82c3.38,0-3.89,7.79-3.89,7.79l-2.88,2.71c-1.21,1.14-2.63,2.02-4.19,2.59s-3.49,1.21-4.42,1.21H36.5c-3.64,0-5.81-4.01-3.79-7.01l23.36-28.82c2.03-3.01-.18-7.04-3.84-7.01l-41.98.45,7.23-14.84,82.16.11c3.66,0,5.84,4.03,3.81,7.04l-23.42,28.76c-2.02,2.99.15,7.01,3.79,7.01Z"/>
    <path class="cls-1" d="M97.61,15.53c-.32,5.52-6.58,8.82-11.76,6.25-1.87-.93-3.76-1.74-5.69-2.44-5.86-2.12-12.02-3.17-18.49-3.17-12.51,0-22.68,3.79-30.52,11.37-7.84,7.58-11.76,17.4-11.76,29.46,0,11.67,3.82,21.29,11.45,28.87,7.63,7.58,17.26,11.37,28.88,11.37,6.77,0,13.22-1.13,19.35-3.4,1.95-.72,3.88-1.56,5.79-2.52,5.36-2.7,11.84.88,11.84,6.62v1.42c0,2.68-1.51,5.14-3.94,6.52-3.89,2.2-8.02,3.92-12.4,5.16-5.89,1.67-12.27,2.51-19.15,2.51-8.75,0-16.84-1.35-24.27-4.06-7.43-2.71-13.95-6.69-19.58-11.96-5.58-5.17-9.86-11.26-12.86-18.27C1.5,72.25,0,64.78,0,56.85s1.5-15.37,4.49-22.34c3-6.96,7.33-13.08,13.01-18.35,5.68-5.32,12.19-9.34,19.54-12.07C44.4,1.37,52.34,0,60.89,0c6.72,0,13.13.92,19.23,2.77,4.62,1.4,9.13,3.34,13.54,5.82,2.58,1.45,4.12,4.11,3.96,6.94h0ZM97.61,15.53c-.32,5.52-6.58,8.82-11.76,6.25-1.87-.93-3.76-1.74-5.69-2.44-5.86-2.12-12.02-3.17-18.49-3.17-12.51,0-22.68,3.79-30.52,11.37-7.84,7.58-11.76,17.4-11.76,29.46,0,11.67,3.82,21.29,11.45,28.87,7.63,7.58,17.26,11.37,28.88,11.37,6.77,0,13.22-1.13,19.35-3.4,1.95-.72,3.88-1.56,5.79-2.52,5.36-2.7,11.84.88,11.84,6.62v1.42c0,2.68-1.51,5.14-3.94,6.52-3.89,2.2-8.02,3.92-12.4,5.16-5.89,1.67-12.27,2.51-19.15,2.51-8.75,0-16.84-1.35-24.27-4.06-7.43-2.71-13.95-6.69-19.58-11.96-5.58-5.17-9.86-11.26-12.86-18.27C1.5,72.25,0,64.78,0,56.85s1.5-15.37,4.49-22.34c3-6.96,7.33-13.08,13.01-18.35,5.68-5.32,12.19-9.34,19.54-12.07C44.4,1.37,52.34,0,60.89,0c6.72,0,13.13.92,19.23,2.77,4.62,1.4,9.13,3.34,13.54,5.82,2.58,1.45,4.12,4.11,3.96,6.94h0Z"/>
  </g>
  <g>
    <path class="cls-3" d="M127.63,73.05h-43.82c-3.64,0-5.81-4.01-3.79-7.01l23.42-28.76c2.03-3.01-.15-7.04-3.81-7.04l-70.94-.1c-3.69,4.28-6.29,9.18-7.78,14.71l31.32-.33c3.66-.04,5.87,3.99,3.84,7.01l-23.36,28.82c-2.02,2.99.15,7.01,3.79,7.01h75.76c.93,0,2.84-.63,4.42-1.21,1.56-.58,2.98-1.46,4.19-2.59l2.88-2.71s7.28-7.79,3.89-7.79Z"/>
    <path class="cls-3" d="M31.15,27.54c7.84-7.58,18.02-11.37,30.52-11.37,6.46,0,12.62,1.06,18.49,3.17,1.93.7,3.83,1.51,5.69,2.44,5.18,2.57,11.44-.72,11.76-6.25.16-2.83-1.38-5.49-3.96-6.94-4.41-2.48-8.92-4.43-13.54-5.82C74.02.92,67.61,0,60.89,0,52.34,0,44.4,1.37,37.05,4.1c-7.35,2.73-13.86,6.76-19.54,12.07-5.68,5.27-10.02,11.38-13.01,18.35C1.5,41.48,0,48.93,0,56.85s1.5,15.39,4.49,22.41c3,7.01,7.28,13.11,12.86,18.27,5.63,5.27,12.15,9.25,19.58,11.96,7.43,2.71,15.52,4.06,24.27,4.06,6.88,0,13.26-.84,19.15-2.51,4.38-1.24,8.51-2.96,12.4-5.16,2.43-1.37,3.94-3.84,3.94-6.52v-1.42c0-5.74-6.47-9.32-11.84-6.62-1.9.96-3.83,1.8-5.79,2.52-6.12,2.26-12.57,3.4-19.35,3.4-11.62,0-21.25-3.79-28.88-11.37-7.63-7.58-11.45-17.2-11.45-28.87,0-4.34.52-8.38,1.53-12.14,1.49-5.53,4.09-10.44,7.78-14.71.77-.89,1.58-1.76,2.45-2.6Z"/>
  </g>
</svg>