<?xml version="1.0" encoding="utf-8"?><svg xmlns="http://www.w3.org/2000/svg" xmlns:xlink="http://www.w3.org/1999/xlink"><symbol viewBox="0 0 24 24" fill="none" id="social_discord" xmlns="http://www.w3.org/2000/svg"><path d="M9 12c-1.1 0-2 .9-2 2v2c0 1.1.9 2 2 2h.5l-.5 2h6l-.5-2h.5c1.1 0 2-.9 2-2v-2c0-1.1-.9-2-2-2H9zm-2-4C5 8 4 9 4 10v6c0 1.1.9 2 2 2h12c1.1 0 2-.9 2-2v-6c0-1.1-.9-2-2-2H7z" stroke="currentColor" stroke-width="1.5" fill="rgba(0,0,0,0.2)"/></symbol><symbol viewBox="0 0 24 24" fill="none" id="social_github" xmlns="http://www.w3.org/2000/svg"><path d="M12 2C6.48 2 2 6.48 2 12c0 4.42 2.87 8.17 6.84 9.5.5.08.66-.23.66-.5v-1.69c-2.77.6-3.36-1.34-3.36-1.34-.46-1.16-1.11-1.47-1.11-1.47-.91-.62.07-.6.07-.6 1 .07 1.53 1.03 1.53 1.03.87 1.52 2.34 1.07 2.91.83.09-.65.35-1.09.63-1.34-2.22-.25-4.55-1.11-4.55-4.92 0-1.11.38-1.55 1.02-2.13-.15-.25-.44-1.03.1-2.13 0 0 .85-.27 2.8.79.81-.23 1.69-.35 2.57-.35.88 0 1.76.13 2.57.35 1.93-1.06 2.77-.79 2.77-.79.55 1.1.33 1.88.13 2.13.63.58 1.03 1.02 1.03 2.13 0 3.82-2.34 4.66-4.57 4.91.36.31.69.92.69 1.85V21c0 .27.16.59.67.5C19.14 20.16 22 16.42 22 12A10 10 0 0 0 12 2z" stroke="currentColor" stroke-width="1.5" fill="rgba(0,0,0,0.2)"/></symbol><symbol viewBox="0 0 24 24" fill="none" id="social_instagram" xmlns="http://www.w3.org/2000/svg"><rect x="4" y="4" width="16" height="16" rx="4" stroke="currentColor" stroke-width="1.5" fill="rgba(0,0,0,0.2)"/><circle cx="12" cy="12" r="3" stroke="currentColor" stroke-width="1.5"/><circle cx="17" cy="7" r="1" fill="currentColor"/></symbol><symbol viewBox="0 0 24 24" fill="none" id="social_reddit" xmlns="http://www.w3.org/2000/svg"><circle cx="12" cy="12" r="9" stroke="currentColor" stroke-width="1.5"/><circle cx="9" cy="11" r="1.5" fill="none" stroke="currentColor" stroke-width="1"/><circle cx="15" cy="11" r="1.5" fill="none" stroke="currentColor" stroke-width="1"/><path d="M16 16c-.5 1-2.5 1.5-4 1.5s-3.5-.5-4-1.5" stroke="currentColor" stroke-width="1.5" stroke-linecap="round"/></symbol><symbol viewBox="0 0 24 24" fill="none" id="social_tiktok" xmlns="http://www.w3.org/2000/svg"><path d="M9 12a4 4 0 1 0 4 4V4a5 5 0 0 0 5 5" stroke="currentColor" stroke-width="1.5" stroke-linecap="round" fill="none"/></symbol><symbol viewBox="0 0 24 24" fill="none" id="social_twitch" xmlns="http://www.w3.org/2000/svg"><path d="M4 4v16h6v-2h2v-2h4v-2h2V4H4zm12 8h-2V7h2v5zm-4 0h-2V7h2v5z" stroke="currentColor" stroke-width="1.5" fill="rgba(0,0,0,0.2)"/></symbol><symbol viewBox="0 0 24 24" fill="none" id="social_x" xmlns="http://www.w3.org/2000/svg"><path d="M4 4l16 16M20 4L4 20" stroke="currentColor" stroke-width="2" stroke-linecap="round"/></symbol><symbol viewBox="0 0 24 24" fill="none" id="social_youtube" xmlns="http://www.w3.org/2000/svg"><rect x="3" y="6" width="18" height="12" rx="3" stroke="currentColor" stroke-width="1.5" fill="rgba(0,0,0,0.2)"/><path d="M10 9l5 3-5 3V9z" stroke="currentColor" stroke-width="1.5" fill="currentColor"/></symbol></svg>