<?xml version="1.0" encoding="utf-8"?><svg xmlns="http://www.w3.org/2000/svg" xmlns:xlink="http://www.w3.org/1999/xlink"><symbol viewBox="0 0 24 24" id="arrow_right" xmlns="http://www.w3.org/2000/svg"><path d="M5 12h14M12 5l7 7-7 7" stroke-width="1.5" stroke-linecap="round" stroke-linejoin="round"/></symbol><symbol viewBox="0 0 24 24" id="changelog" xmlns="http://www.w3.org/2000/svg"><path d="M6 22h12a2 2 0 0 0 2-2V8l-6-6-6 6v12a2 2 0 0 0 2 2zm1-2V9.17l5-5 5 5V20H7z M12 11v6 M9 15h6" stroke-width="1.5" stroke-linejoin="round"/><path d="M9 13h6" stroke-width="1.5" stroke-linecap="round"/></symbol><symbol viewBox="0 0 24 24" id="chevron_down" xmlns="http://www.w3.org/2000/svg"><path d="M6 9l6 6 6-6" stroke-width="1.5" stroke-linecap="round" stroke-linejoin="round"/></symbol><symbol viewBox="0 0 24 24" id="close" xmlns="http://www.w3.org/2000/svg"><path d="M18 6L6 18M6 6l12 12" stroke-width="2" stroke-linecap="round"/></symbol><symbol viewBox="0 0 24 24" id="contact" xmlns="http://www.w3.org/2000/svg"><path d="M20 4H4c-1.1 0-1.99.9-1.99 2L2 18c0 1.1.9 2 2 2h16c1.1 0 2-.9 2-2V6c0-1.1-.9-2-2-2zm0 14H4V8l8 5 8-5v10zm-8-7L4 6h16l-8 5z" stroke-width="1.5" stroke-linejoin="round"/></symbol><symbol viewBox="0 0 24 24" id="faq" xmlns="http://www.w3.org/2000/svg"><path d="M20 2H4c-1.1 0-2 .9-2 2v18l4-4h14c1.1 0 2-.9 2-2V4c0-1.1-.9-2-2-2zm0 14H6l-2 2V4h16v12z M11 10h2v2h-2z M11 6h2v2h-2z" stroke-width="1.5"/></symbol><symbol viewBox="0 0 24 24" id="help" xmlns="http://www.w3.org/2000/svg"><circle cx="12" cy="12" r="10" stroke-width="1.5"/><path d="M9.09 9a3 3 0 0 1 5.83 1c0 2-3 3-3 3 M12 17h.01" stroke-width="1.5" stroke-linecap="round"/></symbol><symbol viewBox="0 0 24 24" id="home" xmlns="http://www.w3.org/2000/svg"><path d="M3 10v11h6v-6h6v6h6v-11L12 3z" stroke-width="1.5" stroke-linejoin="round"/></symbol><symbol viewBox="0 0 24 24" id="info" xmlns="http://www.w3.org/2000/svg"><circle cx="12" cy="12" r="10" stroke-width="1.5"/><path d="M12 16v-4 M12 8h.01" stroke-width="2" stroke-linecap="round"/></symbol><symbol viewBox="0 0 24 24" id="leaderboard" xmlns="http://www.w3.org/2000/svg"><path d="M19 5h-2V3H7v2H5c-1.1 0-2 .9-2 2v1c0 2.55 1.92 4.63 4.39 4.94.63 1.5 1.98 2.63 3.61 2.96V19H7v2h10v-2h-4v-3.1c1.63-.33 2.98-1.46 3.61-2.96C19.08 12.63 21 10.55 21 8V7c0-1.1-.9-2-2-2zM5 8V7h2v3.82C5.84 10.4 5 9.3 5 8zm14 0c0 1.3-.84 2.4-2 2.82V7h2v1z" stroke-width="1.5" stroke-linejoin="round"/></symbol><symbol viewBox="0 0 24 24" id="menu" xmlns="http://www.w3.org/2000/svg"><path d="M3 12h18M3 6h18M3 18h18" stroke-width="2" stroke-linecap="round"/></symbol><symbol viewBox="0 0 24 24" id="play" xmlns="http://www.w3.org/2000/svg"><path d="M21 6H3c-1.1 0-2 .9-2 2v8c0 1.1.9 2 2 2h18c1.1 0 2-.9 2-2V8c0-1.1-.9-2-2-2zm-10 7H9v2H7v-2H5v-2h2V9h2v2h2v2zm6 1c-.83 0-1.5-.67-1.5-1.5S16.17 11 17 11s1.5.67 1.5 1.5S17.83 14 17 14zm-3-3c-.83 0-1.5-.67-1.5-1.5S13.17 8 14 8s1.5.67 1.5 1.5S14.83 11 14 11z" stroke-width="1.2" stroke-linejoin="round"/></symbol><symbol viewBox="0 0 24 24" id="policy" xmlns="http://www.w3.org/2000/svg"><path d="M12 2L3 7v6c0 5.55 3.84 10.74 9 12 5.16-1.26 9-6.45 9-12V7l-9-5zm0 18c-4.31-1.16-7-5.21-7-9.2V8l7-4 7 4v2.8c0 3.99-2.69 8.04-7 9.2z" stroke-width="1.5"/></symbol><symbol viewBox="0 0 24 24" id="search" xmlns="http://www.w3.org/2000/svg"><circle cx="11" cy="11" r="8" stroke-width="1.5"/><path d="M21 21l-4.35-4.35" stroke-width="1.5" stroke-linecap="round"/></symbol><symbol viewBox="0 0 24 24" id="stats" xmlns="http://www.w3.org/2000/svg"><path d="M19 3H5c-1.1 0-2 .9-2 2v14c0 1.1.9 2 2 2h14c1.1 0 2-.9 2-2V5c0-1.1-.9-2-2-2zm0 16H5V5h14v14z" stroke-width="1.5" stroke-linejoin="round"/><path d="M7 12h2v5H7zm4-3h2v8h-2zm4-3h2v11h-2z" stroke-width="1.5"/></symbol><symbol viewBox="0 0 24 24" id="support" xmlns="http://www.w3.org/2000/svg"><path d="M21 16.5c-1.25.11-2.45-.63-2.94-1.81l-2.05-4.94c-.95-2.28-3.14-3.75-5.61-3.75s-4.66 1.47-5.61 3.75L2.74 14.69c-.49 1.18-1.69 1.92-2.94 1.81V19c0 1.1.9 2 2 2h18c1.1 0 2-.9 2-2v-2.5z" stroke-width="1.5"/></symbol><symbol viewBox="0 0 24 24" id="team" xmlns="http://www.w3.org/2000/svg"><path d="M12 12c2.21 0 4-1.79 4-4s-1.79-4-4-4-4 1.79-4 4 1.79 4 4 4zm0 2c-2.67 0-8 1.34-8 4v2h16v-2c0-2.66-5.33-4-8-4z" stroke-width="1.5"/></symbol><symbol viewBox="0 0 24 24" id="user" xmlns="http://www.w3.org/2000/svg"><circle cx="12" cy="8" r="4" stroke-width="1.5"/><path d="M20 21v-2a4 4 0 0 0-4-4H8a4 4 0 0 0-4 4v2" stroke-width="1.5" stroke-linecap="round"/></symbol></svg>