<svg width="20" height="20" viewBox="0 0 24 24" fill="none" xmlns="http://www.w3.org/2000/svg"><path d="M12 2C6.48 2 2 6.48 2 12c0 4.42 2.87 8.17 6.84 9.5.5.08.66-.23.66-.5v-1.69c-2.77.6-3.36-1.34-3.36-1.34-.46-1.16-1.11-1.47-1.11-1.47-.91-.62.07-.6.07-.6 1 .07 1.53 1.03 1.53 1.03.87 1.52 2.34 1.07 2.91.83.09-.65.35-1.09.63-1.34-2.22-.25-4.55-1.11-4.55-4.92 0-1.11.38-1.55 1.02-2.13-.15-.25-.44-1.03.1-2.13 0 0 .85-.27 2.8.79.81-.23 1.69-.35 2.57-.35.88 0 1.76.13 2.57.35 1.93-1.06 2.77-.79 2.77-.79.55 1.1.33 1.88.13 2.13.63.58 1.03 1.02 1.03 2.13 0 3.82-2.34 4.66-4.57 4.91.36.31.69.92.69 1.85V21c0 .27.16.59.67.5C19.14 20.16 22 16.42 22 12A10 10 0 0 0 12 2z" stroke="currentColor" stroke-width="1.5" fill="rgba(0,0,0,0.2)"/></svg>
